Coordinates
version=1
nRows=11
nColumns=40
inDegrees=yes

Units are S.I. units (second, meters, Newtons, ...)
If the header above contains a line with 'inDegrees', this indicates whether rotational values are in degrees (yes) or radians (no).

endheader
time	pelvis_tilt	pelvis_list	pelvis_rotation	pelvis_tx	pelvis_ty	pelvis_tz	hip_flexion_r	hip_adduction_r	hip_rotation_r	knee_angle_r	knee_angle_r_beta	ankle_angle_r	subtalar_angle_r	mtp_angle_r	hip_flexion_l	hip_adduction_l	hip_rotation_l	knee_angle_l	knee_angle_l_beta	ankle_angle_l	subtalar_angle_l	mtp_angle_l	lumbar_extension	lumbar_bending	lumbar_rotation	arm_flex_r	arm_add_r	arm_rot_r	elbow_flex_r	pro_sup_r	wrist_flex_r	wrist_dev_r	arm_flex_l	arm_add_l	arm_rot_l	elbow_flex_l	pro_sup_l	wrist_flex_l	wrist_dev_l
      2.65000000	     -5.78440305	     -0.17192603	      4.02234765	     -0.42222784	      0.68159524	     -1.03185249	     62.91548015	     -5.12765234	      0.93411592	      7.82691311	      0.13660540	    -15.12922846	      0.00000000	      0.00000000	     64.50094356	      1.46455479	     -7.57544688	     92.65243314	      1.61709002	     23.99840862	      0.00000000	      0.00000000	    -19.98930210	     -2.59758490	     -3.04005435	     89.94146814	     -9.12597371	      9.42226708	     40.32846387	     69.47076291	      0.00000000	      0.00000000	     89.94276333	    -19.36729319	     10.82599241	     46.27432125	     75.50986659	      0.00000000	      0.00000000
      2.65500000	     -5.93947131	     -0.05822018	      4.22860385	     -0.42263796	      0.67955640	     -1.03187765	     63.17744740	     -5.37707291	      0.94800513	      7.84591964	      0.13693713	    -15.14707061	      0.00000000	      0.00000000	     64.91463342	      1.68575226	     -7.62513258	     92.94367879	      1.62217321	     24.04444829	      0.00000000	      0.00000000	    -19.94306257	     -2.69052573	     -3.35762467	     89.94182663	     -9.03238582	      8.82610434	     40.32182588	     73.42172344	      0.00000000	      0.00000000	     89.94325995	    -19.44017922	     10.23442517	     46.29836405	     80.30717292	      0.00000000	      0.00000000
      2.66000000	     -6.04493352	     -0.17155184	      4.29732496	     -0.42291226	      0.67738780	     -1.03167514	     63.36495329	     -5.38587672	      0.84558149	      7.82796699	      0.13662380	    -15.12204635	      0.00000000	      0.00000000	     65.31713582	      1.64571740	     -7.52487661	     93.34808517	      1.62923144	     24.16520814	      0.00000000	      0.00000000	    -19.88371800	     -2.60729482	     -3.38097902	     89.94215212	     -9.06755220	      8.71469041	     40.39072817	     73.77387698	      0.00000000	      0.00000000	     89.94361640	    -19.40144070	     10.18098329	     46.36997793	     80.06133665	      0.00000000	      0.00000000
      2.66500000	     -6.02858919	     -0.20616581	      4.51182934	     -0.42296895	      0.67555519	     -1.03193462	     63.37657922	     -5.58318861	      0.63890999	      7.80906132	      0.13629383	    -15.02236452	      0.00000000	      0.00000000	     65.54600907	      1.77796519	     -7.46516332	     93.70043454	      1.63538109	     24.25889824	      0.00000000	      0.00000000	    -19.97764331	     -2.51598852	     -3.63842216	     89.94239253	     -9.00447968	      9.12948571	     40.61228659	     69.55385232	      0.00000000	      0.00000000	     89.94390586	    -19.46941853	     10.65438096	     46.57737911	     74.72843168	      0.00000000	      0.00000000
      2.67000000	     -6.22896747	     -0.07839207	      4.40124401	     -0.42340520	      0.67314668	     -1.03162479	     63.81437326	     -5.57280686	      0.63142620	      7.97698720	      0.13922469	    -15.20138221	      0.00000000	      0.00000000	     66.00665528	      1.71814399	     -7.68362283	     94.06474308	      1.64173948	     24.50207503	      0.00000000	      0.00000000	    -19.84313755	     -2.72246024	     -3.66405145	     89.94269763	     -8.90971934	      9.83896250	     41.01056565	     61.39742584	      0.00000000	      0.00000000	     89.94415598	    -19.57191505	     11.51581245	     47.00326047	     64.94490494	      0.00000000	      0.00000000
      2.67500000	     -6.14368042	      0.00476128	      4.57466706	     -0.42335160	      0.67163418	     -1.03180392	     63.72130928	     -5.78510690	      0.73365657	      7.91546037	      0.13815085	    -14.87838889	      0.00000000	      0.00000000	     66.10016157	      1.94405022	     -7.64719081	     94.34796339	      1.64668260	     24.49252927	      0.00000000	      0.00000000	    -20.02795181	     -2.76361144	     -3.85810503	     89.94314258	     -8.94053043	      8.64141991	     40.75528910	     71.98550496	      0.00000000	      0.00000000	     89.94447615	    -19.51232328	      9.95205670	     46.58113761	     79.96270015	      0.00000000	      0.00000000
      2.68000000	     -6.26032534	     -0.03581101	      4.69623582	     -0.42361687	      0.66945404	     -1.03180109	     63.92813063	     -5.88902325	      0.54098276	      7.88668972	      0.13764870	    -15.05064093	      0.00000000	      0.00000000	     66.49853415	      1.99904799	     -7.62562614	     94.71413636	      1.65307353	     24.59976612	      0.00000000	      0.00000000	    -19.97615209	     -2.73687543	     -4.00882310	     89.94339046	     -8.90179421	      8.91133232	     40.93372108	     68.29913679	      0.00000000	      0.00000000	     89.94487917	    -19.53398409	     10.40611773	     46.81970779	     74.85924402	      0.00000000	      0.00000000
      2.68500000	     -6.25471548	     -0.18377778	      4.88875615	     -0.42367366	      0.66755330	     -1.03183050	     63.95741323	     -5.98854572	      0.32049560	      7.88770520	      0.13766643	    -14.93007387	      0.00000000	      0.00000000	     66.77437001	      2.05827802	     -7.43945762	     95.10845932	      1.65995576	     24.68991924	      0.00000000	      0.00000000	    -20.04108556	     -2.55656649	     -4.13874902	     89.94369626	     -8.92181171	      8.47864438	     40.91327099	     71.80375472	      0.00000000	      0.00000000	     89.94519954	    -19.49304940	      9.83908329	     46.75167482	     79.67990745	      0.00000000	      0.00000000
      2.69000000	     -6.32927673	     -0.20469193	      4.91911240	     -0.42383579	      0.66549212	     -1.03171181	     64.12645684	     -6.01157399	      0.22315069	      7.88998761	      0.13770626	    -14.91555278	      0.00000000	      0.00000000	     67.10975829	      2.08865239	     -7.39692358	     95.47439090	      1.66634247	     24.85043932	      0.00000000	      0.00000000	    -20.02828144	     -2.55961553	     -4.19028068	     89.94405532	     -8.89985121	      8.80537056	     41.15393292	     67.72049264	      0.00000000	      0.00000000	     89.94544541	    -19.51720566	     10.37759386	     46.96789933	     74.11693818	      0.00000000	      0.00000000
      2.69500000	     -6.41825760	      0.17773986	      5.10386817	     -0.42397895	      0.66352503	     -1.03204007	     64.81409887	     -6.45480147	     -0.37494741	      8.98466798	      0.15681204	    -13.98416023	      0.00000000	      0.00000000	     67.33760559	      2.54946141	     -7.63477983	     95.63643900	      1.66917075	     25.07013032	      0.00000000	      0.00000000	    -19.99606074	     -2.94116529	     -4.52058959	     89.94463189	     -8.72195304	      8.79778722	     41.00953902	     63.95276313	      0.00000000	      0.00000000	     89.94590585	    -19.29617498	     10.38695440	     46.88079663	     69.11847036	      0.00000000	      0.00000000
      2.70000000	     -6.34012711	     -0.06497125	      5.06154011	     -0.42401185	      0.66170419	     -1.03169495	     64.29515715	     -6.22841439	      0.27604025	      7.83173332	      0.13668953	    -15.11809246	      0.00000000	      0.00000000	     67.56968128	      2.29358934	     -7.49093429	     96.13640384	      1.67789678	     25.04412219	      0.00000000	      0.00000000	    -20.17695780	     -2.71321493	     -4.40300922	     89.94469135	     -8.86555432	      8.18938959	     41.23623314	     71.20665319	      0.00000000	      0.00000000	     89.94607366	    -19.47944071	      9.63643360	     46.96938677	     79.70772839	      0.00000000	      0.00000000
